name Walk10.mot
datacolumns 19
datarows 22
range 3.05300000 3.07400000
endheader

                time	   L_ground_force_vx	   L_ground_force_vy	   L_ground_force_vz	   L_ground_force_px	   L_ground_force_py	   L_ground_force_pz	   R_ground_force_vx	   R_ground_force_vy	   R_ground_force_vz	   R_ground_force_px	   R_ground_force_py	   R_ground_force_pz	   L_ground_torque_x	   L_ground_torque_y	   L_ground_torque_z	   R_ground_torque_x	   R_ground_torque_y	   R_ground_torque_z	
          3.05300000	          0.03358745	          0.08763277	         -0.00222885	         -0.00028140	          0.00000000	         -0.00009886	        -25.70552803	        709.58529311	        -44.20986734	          0.20283026	          0.00000000	          0.06972019	          0.00000000	          0.00043426	          0.00000000	          0.00000000	          8.34573166	          0.00000000	
          3.05400000	          0.03151771	          0.08096163	         -0.00219563	         -0.00027146	          0.00000000	         -0.00009531	        -25.42596538	        708.80146778	        -44.22796235	          0.20308899	          0.00000000	          0.06980918	          0.00000000	          0.00041041	          0.00000000	          0.00000000	          8.30573513	          0.00000000	
          3.05500000	          0.02950485	          0.07455176	         -0.00215694	         -0.00026134	          0.00000000	         -0.00009170	        -25.14627925	        708.01210804	        -44.24798915	          0.20334765	          0.00000000	          0.06989851	          0.00000000	          0.00038703	          0.00000000	          0.00000000	          8.26592037	          0.00000000	
          3.05600000	          0.02755164	          0.06840517	         -0.00211339	         -0.00025109	          0.00000000	         -0.00008806	        -24.86647592	        707.21743147	        -44.26976978	          0.20360620	          0.00000000	          0.06998813	          0.00000000	          0.00036418	          0.00000000	          0.00000000	          8.22626963	          0.00000000	
          3.05700000	          0.02566039	          0.06252271	         -0.00206555	         -0.00024077	          0.00000000	         -0.00008439	        -24.58656268	        706.41767128	        -44.29311791	          0.20386459	          0.00000000	          0.07007800	          0.00000000	          0.00034190	          0.00000000	          0.00000000	          8.18676404	          0.00000000	
          3.05800000	          0.02383298	          0.05690413	         -0.00201398	         -0.00023041	          0.00000000	         -0.00008071	        -24.30654780	        705.61307479	        -44.31784058	          0.20412278	          0.00000000	          0.07016810	          0.00000000	          0.00032022	          0.00000000	          0.00000000	          8.14738353	          0.00000000	
          3.05900000	          0.02207088	          0.05154825	         -0.00195918	         -0.00022006	          0.00000000	         -0.00007704	        -24.02644089	        704.80390130	        -44.34374018	          0.20438075	          0.00000000	          0.07025839	          0.00000000	          0.00029917	          0.00000000	          0.00000000	          8.10810689	          0.00000000	
          3.06000000	          0.02037520	          0.04645295	         -0.00190163	         -0.00020976	          0.00000000	         -0.00007340	        -23.74625319	        703.99041991	        -44.37061645	          0.20463844	          0.00000000	          0.07034881	          0.00000000	          0.00027878	          0.00000000	          0.00000000	          8.06891215	          0.00000000	
          3.06100000	          0.01874670	          0.04161535	         -0.00184180	         -0.00019955	          0.00000000	         -0.00006978	        -23.46599779	        703.17290787	        -44.39826832	          0.20489584	          0.00000000	          0.07043934	          0.00000000	          0.00025908	          0.00000000	          0.00000000	          8.02977728	          0.00000000	
          3.06200000	          0.01718583	          0.03703180	         -0.00178009	         -0.00018944	          0.00000000	         -0.00006621	        -23.18568962	        702.35165003	        -44.42649537	          0.20515290	          0.00000000	          0.07052993	          0.00000000	          0.00024006	          0.00000000	          0.00000000	          7.99068103	          0.00000000	
          3.06300000	          0.01569272	          0.03269803	         -0.00171690	         -0.00017948	          0.00000000	         -0.00006269	        -22.90534502	        701.52693893	        -44.45509889	          0.20540960	          0.00000000	          0.07062056	          0.00000000	          0.00022176	          0.00000000	          0.00000000	          7.95160351	          0.00000000	
          3.06400000	          0.01426727	          0.02860917	         -0.00165260	         -0.00016969	          0.00000000	         -0.00005924	        -22.62498124	        700.69907530	        -44.48388222	          0.20566588	          0.00000000	          0.07071118	          0.00000000	          0.00020418	          0.00000000	          0.00000000	          7.91252642	          0.00000000	
          3.06500000	          0.01290910	          0.02475986	         -0.00158751	         -0.00016010	          0.00000000	         -0.00005585	        -22.34461566	        699.86836797	        -44.51265077	          0.20592172	          0.00000000	          0.07080176	          0.00000000	          0.00018732	          0.00000000	          0.00000000	          7.87343280	          0.00000000	
          3.06600000	          0.01161763	          0.02114428	         -0.00152197	         -0.00015071	          0.00000000	         -0.00005255	        -22.06426510	        699.03513306	        -44.54121188	          0.20617707	          0.00000000	          0.07089228	          0.00000000	          0.00017118	          0.00000000	          0.00000000	          7.83430657	          0.00000000	
          3.06700000	          0.01039206	          0.01775620	         -0.00145624	         -0.00014155	          0.00000000	         -0.00004932	        -21.78394520	        698.19969253	        -44.56937488	          0.20643187	          0.00000000	          0.07098271	          0.00000000	          0.00015577	          0.00000000	          0.00000000	          7.79513212	          0.00000000	
          3.06800000	          0.00923143	          0.01458910	         -0.00139060	         -0.00013263	          0.00000000	         -0.00004618	        -21.50366991	        697.36237224	        -44.59695160	          0.20668608	          0.00000000	          0.07107300	          0.00000000	          0.00014109	          0.00000000	          0.00000000	          7.75589404	          0.00000000	
          3.06900000	          0.00813460	          0.01163615	         -0.00132529	         -0.00012397	          0.00000000	         -0.00004314	        -21.22345126	        696.52350022	        -44.62375708	          0.20693964	          0.00000000	          0.07116314	          0.00000000	          0.00012711	          0.00000000	          0.00000000	          7.71657708	          0.00000000	
          3.07000000	          0.00710028	          0.00889030	         -0.00126052	         -0.00011558	          0.00000000	         -0.00004019	        -20.94329941	        695.68340490	        -44.64961035	          0.20719250	          0.00000000	          0.07125309	          0.00000000	          0.00011385	          0.00000000	          0.00000000	          7.67716613	          0.00000000	
          3.07100000	          0.00612708	          0.00634432	         -0.00119650	         -0.00010747	          0.00000000	         -0.00003734	        -20.66322287	        694.84241399	        -44.67433531	          0.20744460	          0.00000000	          0.07134281	          0.00000000	          0.00010128	          0.00000000	          0.00000000	          7.63764627	          0.00000000	
          3.07200000	          0.00521347	          0.00399084	         -0.00113340	         -0.00009964	          0.00000000	         -0.00003459	        -20.38322880	        694.00085420	        -44.69776150	          0.20769588	          0.00000000	          0.07143227	          0.00000000	          0.00008940	          0.00000000	          0.00000000	          7.59800276	          0.00000000	
          3.07300000	          0.00435783	          0.00182237	         -0.00107138	         -0.00009210	          0.00000000	         -0.00003194	        -20.10332330	        693.15905251	        -44.71972481	          0.20794627	          0.00000000	          0.07152144	          0.00000000	          0.00007819	          0.00000000	          0.00000000	          7.55822114	          0.00000000	
          3.07400000	          0.00355848	         -0.00016860	         -0.00101058	         -0.00008485	          0.00000000	         -0.00002940	        -19.82351145	        692.31733872	        -44.74006836	          0.20819572	          0.00000000	          0.07161029	          0.00000000	          0.00006764	          0.00000000	          0.00000000	          7.51828741	          0.00000000	
